<?xml version="1.0" standalone="no"?>
<!DOCTYPE svg PUBLIC "-//W3C//DTD SVG 20010904//EN"
 "http://www.w3.org/TR/2001/REC-SVG-20010904/DTD/svg10.dtd">
<svg version="1.0" xmlns="http://www.w3.org/2000/svg"
 width="512.000000pt" height="512.000000pt" viewBox="0 0 512.000000 512.000000"
 preserveAspectRatio="xMidYMid meet">

<g transform="translate(0.000000,512.000000) scale(0.100000,-0.100000)"
fill="#00D8FF" stroke="none">
<path d="M636 4789 c-27 -4 -77 -22 -111 -38 -193 -95 -263 -356 -145 -541 16
-25 280 -296 587 -602 475 -473 563 -558 593 -563 19 -3 121 -5 227 -3 210 3
218 5 267 72 19 25 21 44 24 219 2 106 0 208 -3 227 -5 30 -90 119 -568 597
-602 603 -610 610 -731 632 -66 12 -70 12 -140 0z m612 -823 l512 -511 0 -47
0 -48 -48 0 -47 0 -513 513 c-532 532 -534 535 -499 579 18 23 48 37 66 31 9
-3 247 -236 529 -517z"/>
<path d="M2655 4786 c-41 -18 -83 -69 -90 -109 -3 -18 -5 -370 -3 -784 3 -741
3 -752 24 -779 49 -66 58 -68 272 -76 121 -4 220 -12 258 -22 161 -40 287
-106 415 -217 124 -107 174 -107 298 0 128 111 254 177 415 217 38 10 137 18
258 22 214 8 223 10 272 76 21 27 21 35 21 806 0 771 0 779 -21 806 -47 64
-62 69 -227 72 -173 4 -297 -9 -430 -44 -109 -29 -272 -105 -364 -169 -36 -26
-72 -44 -79 -41 -8 3 -42 24 -75 47 -83 56 -248 133 -339 159 -41 11 -118 27
-170 35 -122 19 -393 19 -435 1z m408 -321 c152 -26 297 -89 406 -175 l51 -40
0 -525 0 -525 -57 29 c-142 71 -313 116 -482 127 l-101 7 0 559 0 558 49 0
c26 0 87 -7 134 -15z m1417 -543 l0 -559 -101 -7 c-169 -11 -340 -56 -481
-127 l-58 -29 0 523 0 524 23 20 c131 118 371 209 560 212 l57 1 0 -558z"/>
<path d="M1045 2711 c-125 -32 -221 -137 -240 -264 l-7 -47 -174 0 c-125 0
-184 -4 -207 -14 -42 -17 -85 -68 -92 -109 -6 -29 148 -1780 161 -1837 9 -38
53 -91 90 -106 49 -21 1359 -21 1408 0 37 15 81 68 90 106 13 57 167 1808 161
1837 -7 41 -50 92 -92 109 -23 10 -82 14 -207 14 l-174 0 -7 47 c-8 53 -41
125 -79 170 -14 16 -53 45 -88 64 l-63 34 -225 2 c-124 1 -238 -2 -255 -6z
m855 -653 c1 -49 -122 -1394 -128 -1408 -4 -8 -9 215 -12 497 -5 497 -6 512
-26 539 -39 53 -71 69 -134 69 -63 0 -95 -16 -134 -69 -20 -27 -21 -40 -24
-537 l-3 -509 -159 0 -159 0 -3 509 c-3 497 -4 510 -24 537 -39 53 -71 69
-134 69 -63 0 -95 -16 -134 -69 -20 -27 -21 -42 -26 -539 -3 -282 -8 -505 -12
-497 -6 14 -129 1359 -128 1408 l0 22 620 0 620 0 0 -22z"/>
<path d="M3500 2545 c-354 -58 -660 -285 -824 -612 -235 -470 -101 -1051 318
-1375 427 -330 1012 -313 1425 41 147 127 293 361 340 544 63 244 48 495 -43
718 -24 60 -25 65 -9 74 97 55 121 171 52 250 -45 51 -78 57 -301 53 -215 -3
-223 -5 -272 -72 -20 -26 -21 -41 -21 -246 0 -205 1 -220 21 -246 63 -85 166
-97 245 -27 21 18 24 11 40 -98 44 -303 -96 -608 -359 -780 -309 -203 -726
-159 -991 102 -161 159 -236 340 -236 569 0 175 36 297 125 434 114 174 296
301 498 347 26 6 89 14 140 18 99 9 126 21 166 75 29 39 29 133 0 172 -41 56
-69 69 -152 71 -42 1 -115 -4 -162 -12z"/>
</g>
</svg>
